<?xml version="1.0" encoding="iso-8859-1"?>
<!-- Uploaded to: SVG Repo, www.svgrepo.com, Generator: SVG Repo Mixer Tools -->
<svg fill="#000000" height="800px" width="800px" version="1.1" id="Layer_1" xmlns="http://www.w3.org/2000/svg" xmlns:xlink="http://www.w3.org/1999/xlink" 
	 viewBox="0 0 511.999 511.999" xml:space="preserve">
<g>
	<g>
		<path d="M445.274,319.548l-43.298-75.772c-1.454-2.546-4.161-4.117-7.094-4.117H117.096c-2.932,0-5.64,1.571-7.094,4.117
			l-43.574,76.255c-1.445,2.528-1.435,5.635,0.026,8.154c1.463,2.52,4.154,4.069,7.067,4.069h35.404v171.574
			c0,4.513,3.657,8.17,8.17,8.17h277.787c4.513,0,8.17-3.657,8.17-8.17V332.255h35.426c4.513,0,8.17-3.657,8.17-8.17
			C446.649,322.406,446.144,320.845,445.274,319.548z M87.6,315.915L121.838,256h120.074l-34.238,59.915H87.6z M386.713,495.66
			H264.159v-57.191c0-4.513-3.657-8.17-8.17-8.17c-4.513,0-8.17,3.657-8.17,8.17v57.191H125.266V332.255h87.149
			c2.932,0,5.64-1.571,7.094-4.117l28.31-49.543v127.192c0,4.513,3.657,8.17,8.17,8.17c4.513,0,8.17-3.657,8.17-8.17V278.596
			l28.31,49.543c1.454,2.546,4.161,4.117,7.094,4.117h87.149V495.66z M304.306,315.915L270.068,256h120.074l34.238,59.915H304.306z"
			/>
	</g>
</g>
<g>
	<g>
		<path d="M372.279,59.915c4.513,0,8.17-3.657,8.17-8.17V8.17c0-4.513-3.657-8.17-8.17-8.17H138.066c-4.513,0-8.17,3.657-8.17,8.17
			v43.574c0,4.513,3.657,8.17,8.17,8.17h2.723v16.34h-2.723c-4.513,0-8.17,3.657-8.17,8.17V128c0,4.513,3.657,8.17,8.17,8.17h2.723
			v16.34h-2.723c-4.513,0-8.17,3.657-8.17,8.17v43.574c0,4.513,3.658,8.17,8.17,8.17h234.213c4.513,0,8.17-3.657,8.17-8.17v-43.574
			c0-4.513-3.657-8.17-8.17-8.17h-2.723v-16.34h2.723c4.513,0,8.17-3.657,8.17-8.17V84.426c0-4.513-3.657-8.17-8.17-8.17h-2.723
			v-16.34H372.279z M364.108,196.085H146.236v-27.234h217.872V196.085z M364.108,119.83h-35.404c-4.513,0-8.17,3.657-8.17,8.17
			c0,4.513,3.657,8.17,8.17,8.17h24.511v16.34H157.13v-16.34h0h138.894c4.513,0,8.17-3.657,8.17-8.17c0-4.513-3.657-8.17-8.17-8.17
			H146.236V92.596h217.872V119.83z M157.13,76.255v-16.34h0h196.085v16.34H157.13z M364.108,43.574H146.236V16.34h0h217.872V43.574z
			"/>
	</g>
</g>
</svg>